# xmcd CD database file
#
# Track frame offsets:
#	150
#	16437
#	32037
#	43400
#	54220
#	67612
#	81847
#	90867
#	101145
#	109987
#
# Disc length: 1613 seconds
#
# Revision: 1
# Processed by: cddbd v1.5.2PL0 Copyright (c) Steve Scherf et al.
# Submitted via: jetAudio 7
#
DISCID=75064b0a
DTITLE=Floyd Cramer - Piano Masterpieces 1900-1975
DYEAR=1900
DGENRE=Country
TTITLE0=Dizzy Fingers
TTITLE1=The Entertainer (Theme From ''The Sting'')
TTITLE2=Canadian Sunset
TTITLE3=A Walk In The Black Forest
TTITLE4=Sunrise Serenade
TTITLE5=Maple Leaf Rag
TTITLE6=Near You
TTITLE7=The Old Piano Roll Blues
TTITLE8=Java
TTITLE9=Last Date
EXTD=
EXTT0=
EXTT1=
EXTT2=
EXTT3=
EXTT4=
EXTT5=
EXTT6=
EXTT7=
EXTT8=
EXTT9=
PLAYORDER=
